<?xml version="1.0" encoding="utf-8" standalone="no"?>
<!DOCTYPE svg PUBLIC "-//W3C//DTD SVG 1.1//EN"
  "http://www.w3.org/Graphics/SVG/1.1/DTD/svg11.dtd">
<svg xmlns:xlink="http://www.w3.org/1999/xlink" width="678.702375pt" height="435.318281pt" viewBox="0 0 678.702375 435.318281" xmlns="http://www.w3.org/2000/svg" version="1.1">
 <metadata>
  <rdf:RDF xmlns:dc="http://purl.org/dc/elements/1.1/" xmlns:cc="http://creativecommons.org/ns#" xmlns:rdf="http://www.w3.org/1999/02/22-rdf-syntax-ns#">
   <cc:Work>
    <dc:type rdf:resource="http://purl.org/dc/dcmitype/StillImage"/>
    <dc:date>2026-06-09T15:10:08.298733</dc:date>
    <dc:format>image/svg+xml</dc:format>
    <dc:creator>
     <cc:Agent>
      <dc:title>Matplotlib v3.10.8, https://matplotlib.org/</dc:title>
     </cc:Agent>
    </dc:creator>
   </cc:Work>
  </rdf:RDF>
 </metadata>
 <defs>
  <style type="text/css">*{stroke-linejoin: round; stroke-linecap: butt}</style>
 </defs>
 <g id="figure_1">
  <g id="patch_1">
   <path d="M -0 435.318281 
L 678.702375 435.318281 
L 678.702375 0 
L -0 0 
z
" style="fill: #ffffff"/>
  </g>
  <g id="axes_1">
   <g id="table_1">
    <g id="patch_2">
     <path d="M 65.982375 149.901179 
L 217.362375 149.901179 
L 217.362375 129.666904 
L 65.982375 129.666904 
z
" style="fill: #1f3a5f; stroke: #d0d0ca; stroke-linejoin: miter"/>
    </g>
    <g id="text_1">
     <text style="font-weight: 700; font-size: 9px; font-family: 'DejaVu Sans'; text-anchor: middle; fill: #ffffff" x="141.672375" y="142.267479" transform="rotate(-0 141.672375 142.267479)">Clean</text>
    </g>
    <g id="patch_3">
     <path d="M 217.362375 149.901179 
L 368.742375 149.901179 
L 368.742375 129.666904 
L 217.362375 129.666904 
z
" style="fill: #1f3a5f; stroke: #d0d0ca; stroke-linejoin: miter"/>
    </g>
    <g id="text_2">
     <text style="font-weight: 700; font-size: 9px; font-family: 'DejaVu Sans'; text-anchor: middle; fill: #ffffff" x="293.052375" y="142.267479" transform="rotate(-0 293.052375 142.267479)">Train</text>
    </g>
    <g id="patch_4">
     <path d="M 368.742375 149.901179 
L 520.122375 149.901179 
L 520.122375 129.666904 
L 368.742375 129.666904 
z
" style="fill: #1f3a5f; stroke: #d0d0ca; stroke-linejoin: miter"/>
    </g>
    <g id="text_3">
     <text style="font-weight: 700; font-size: 9px; font-family: 'DejaVu Sans'; text-anchor: middle; fill: #ffffff" x="444.432375" y="142.267479" transform="rotate(-0 444.432375 142.267479)">Validation</text>
    </g>
    <g id="patch_5">
     <path d="M 520.122375 149.901179 
L 671.502375 149.901179 
L 671.502375 129.666904 
L 520.122375 129.666904 
z
" style="fill: #1f3a5f; stroke: #d0d0ca; stroke-linejoin: miter"/>
    </g>
    <g id="text_4">
     <text style="font-weight: 700; font-size: 9px; font-family: 'DejaVu Sans'; text-anchor: middle; fill: #ffffff" x="595.812375" y="142.267479" transform="rotate(-0 595.812375 142.267479)">Test</text>
    </g>
    <g id="patch_6">
     <path d="M 7.2 170.135455 
L 65.982375 170.135455 
L 65.982375 149.901179 
L 7.2 149.901179 
z
" style="fill: #e9ece8; stroke: #d0d0ca; stroke-linejoin: miter"/>
    </g>
    <g id="text_5">
     <text style="font-size: 9px; font-family: 'DejaVu Sans'; text-anchor: start" x="13.078237" y="162.501754" transform="rotate(-0 13.078237 162.501754)">Benign</text>
    </g>
    <g id="patch_7">
     <path d="M 65.982375 170.135455 
L 217.362375 170.135455 
L 217.362375 149.901179 
L 65.982375 149.901179 
z
" style="fill: #ffffff; stroke: #d0d0ca; stroke-linejoin: miter"/>
    </g>
    <g id="text_6">
     <text style="font-size: 9px; font-family: 'DejaVu Sans'; text-anchor: end" x="202.224375" y="162.501754" transform="rotate(-0 202.224375 162.501754)">199,989</text>
    </g>
    <g id="patch_8">
     <path d="M 217.362375 170.135455 
L 368.742375 170.135455 
L 368.742375 149.901179 
L 217.362375 149.901179 
z
" style="fill: #ffffff; stroke: #d0d0ca; stroke-linejoin: miter"/>
    </g>
    <g id="text_7">
     <text style="font-size: 9px; font-family: 'DejaVu Sans'; text-anchor: end" x="353.604375" y="162.501754" transform="rotate(-0 353.604375 162.501754)">139,992</text>
    </g>
    <g id="patch_9">
     <path d="M 368.742375 170.135455 
L 520.122375 170.135455 
L 520.122375 149.901179 
L 368.742375 149.901179 
z
" style="fill: #ffffff; stroke: #d0d0ca; stroke-linejoin: miter"/>
    </g>
    <g id="text_8">
     <text style="font-size: 9px; font-family: 'DejaVu Sans'; text-anchor: end" x="504.984375" y="162.501754" transform="rotate(-0 504.984375 162.501754)">19,999</text>
    </g>
    <g id="patch_10">
     <path d="M 520.122375 170.135455 
L 671.502375 170.135455 
L 671.502375 149.901179 
L 520.122375 149.901179 
z
" style="fill: #ffffff; stroke: #d0d0ca; stroke-linejoin: miter"/>
    </g>
    <g id="text_9">
     <text style="font-size: 9px; font-family: 'DejaVu Sans'; text-anchor: end" x="656.364375" y="162.501754" transform="rotate(-0 656.364375 162.501754)">39,998</text>
    </g>
    <g id="patch_11">
     <path d="M 7.2 190.36973 
L 65.982375 190.36973 
L 65.982375 170.135455 
L 7.2 170.135455 
z
" style="fill: #e9ece8; stroke: #d0d0ca; stroke-linejoin: miter"/>
    </g>
    <g id="text_10">
     <text style="font-size: 9px; font-family: 'DejaVu Sans'; text-anchor: start" x="13.078237" y="182.73603" transform="rotate(-0 13.078237 182.73603)">BruteForce</text>
    </g>
    <g id="patch_12">
     <path d="M 65.982375 190.36973 
L 217.362375 190.36973 
L 217.362375 170.135455 
L 65.982375 170.135455 
z
" style="fill: #ffffff; stroke: #d0d0ca; stroke-linejoin: miter"/>
    </g>
    <g id="text_11">
     <text style="font-size: 9px; font-family: 'DejaVu Sans'; text-anchor: end" x="202.224375" y="182.73603" transform="rotate(-0 202.224375 182.73603)">12,522</text>
    </g>
    <g id="patch_13">
     <path d="M 217.362375 190.36973 
L 368.742375 190.36973 
L 368.742375 170.135455 
L 217.362375 170.135455 
z
" style="fill: #ffffff; stroke: #d0d0ca; stroke-linejoin: miter"/>
    </g>
    <g id="text_12">
     <text style="font-size: 9px; font-family: 'DejaVu Sans'; text-anchor: end" x="353.604375" y="182.73603" transform="rotate(-0 353.604375 182.73603)">8,766</text>
    </g>
    <g id="patch_14">
     <path d="M 368.742375 190.36973 
L 520.122375 190.36973 
L 520.122375 170.135455 
L 368.742375 170.135455 
z
" style="fill: #ffffff; stroke: #d0d0ca; stroke-linejoin: miter"/>
    </g>
    <g id="text_13">
     <text style="font-size: 9px; font-family: 'DejaVu Sans'; text-anchor: end" x="504.984375" y="182.73603" transform="rotate(-0 504.984375 182.73603)">1,252</text>
    </g>
    <g id="patch_15">
     <path d="M 520.122375 190.36973 
L 671.502375 190.36973 
L 671.502375 170.135455 
L 520.122375 170.135455 
z
" style="fill: #ffffff; stroke: #d0d0ca; stroke-linejoin: miter"/>
    </g>
    <g id="text_14">
     <text style="font-size: 9px; font-family: 'DejaVu Sans'; text-anchor: end" x="656.364375" y="182.73603" transform="rotate(-0 656.364375 182.73603)">2,504</text>
    </g>
    <g id="patch_16">
     <path d="M 7.2 210.604006 
L 65.982375 210.604006 
L 65.982375 190.36973 
L 7.2 190.36973 
z
" style="fill: #e9ece8; stroke: #d0d0ca; stroke-linejoin: miter"/>
    </g>
    <g id="text_15">
     <text style="font-size: 9px; font-family: 'DejaVu Sans'; text-anchor: start" x="13.078237" y="202.970305" transform="rotate(-0 13.078237 202.970305)">DDoS</text>
    </g>
    <g id="patch_17">
     <path d="M 65.982375 210.604006 
L 217.362375 210.604006 
L 217.362375 190.36973 
L 65.982375 190.36973 
z
" style="fill: #ffffff; stroke: #d0d0ca; stroke-linejoin: miter"/>
    </g>
    <g id="text_16">
     <text style="font-size: 9px; font-family: 'DejaVu Sans'; text-anchor: end" x="202.224375" y="202.970305" transform="rotate(-0 202.224375 202.970305)">2,049,917</text>
    </g>
    <g id="patch_18">
     <path d="M 217.362375 210.604006 
L 368.742375 210.604006 
L 368.742375 190.36973 
L 217.362375 190.36973 
z
" style="fill: #ffffff; stroke: #d0d0ca; stroke-linejoin: miter"/>
    </g>
    <g id="text_17">
     <text style="font-size: 9px; font-family: 'DejaVu Sans'; text-anchor: end" x="353.604375" y="202.970305" transform="rotate(-0 353.604375 202.970305)">1,434,940</text>
    </g>
    <g id="patch_19">
     <path d="M 368.742375 210.604006 
L 520.122375 210.604006 
L 520.122375 190.36973 
L 368.742375 190.36973 
z
" style="fill: #ffffff; stroke: #d0d0ca; stroke-linejoin: miter"/>
    </g>
    <g id="text_18">
     <text style="font-size: 9px; font-family: 'DejaVu Sans'; text-anchor: end" x="504.984375" y="202.970305" transform="rotate(-0 504.984375 202.970305)">204,993</text>
    </g>
    <g id="patch_20">
     <path d="M 520.122375 210.604006 
L 671.502375 210.604006 
L 671.502375 190.36973 
L 520.122375 190.36973 
z
" style="fill: #ffffff; stroke: #d0d0ca; stroke-linejoin: miter"/>
    </g>
    <g id="text_19">
     <text style="font-size: 9px; font-family: 'DejaVu Sans'; text-anchor: end" x="656.364375" y="202.970305" transform="rotate(-0 656.364375 202.970305)">409,984</text>
    </g>
    <g id="patch_21">
     <path d="M 7.2 230.838281 
L 65.982375 230.838281 
L 65.982375 210.604006 
L 7.2 210.604006 
z
" style="fill: #e9ece8; stroke: #d0d0ca; stroke-linejoin: miter"/>
    </g>
    <g id="text_20">
     <text style="font-size: 9px; font-family: 'DejaVu Sans'; text-anchor: start" x="13.078237" y="223.204581" transform="rotate(-0 13.078237 223.204581)">DoS</text>
    </g>
    <g id="patch_22">
     <path d="M 65.982375 230.838281 
L 217.362375 230.838281 
L 217.362375 210.604006 
L 65.982375 210.604006 
z
" style="fill: #ffffff; stroke: #d0d0ca; stroke-linejoin: miter"/>
    </g>
    <g id="text_21">
     <text style="font-size: 9px; font-family: 'DejaVu Sans'; text-anchor: end" x="202.224375" y="223.204581" transform="rotate(-0 202.224375 223.204581)">668,775</text>
    </g>
    <g id="patch_23">
     <path d="M 217.362375 230.838281 
L 368.742375 230.838281 
L 368.742375 210.604006 
L 217.362375 210.604006 
z
" style="fill: #ffffff; stroke: #d0d0ca; stroke-linejoin: miter"/>
    </g>
    <g id="text_22">
     <text style="font-size: 9px; font-family: 'DejaVu Sans'; text-anchor: end" x="353.604375" y="223.204581" transform="rotate(-0 353.604375 223.204581)">468,144</text>
    </g>
    <g id="patch_24">
     <path d="M 368.742375 230.838281 
L 520.122375 230.838281 
L 520.122375 210.604006 
L 368.742375 210.604006 
z
" style="fill: #ffffff; stroke: #d0d0ca; stroke-linejoin: miter"/>
    </g>
    <g id="text_23">
     <text style="font-size: 9px; font-family: 'DejaVu Sans'; text-anchor: end" x="504.984375" y="223.204581" transform="rotate(-0 504.984375 223.204581)">66,876</text>
    </g>
    <g id="patch_25">
     <path d="M 520.122375 230.838281 
L 671.502375 230.838281 
L 671.502375 210.604006 
L 520.122375 210.604006 
z
" style="fill: #ffffff; stroke: #d0d0ca; stroke-linejoin: miter"/>
    </g>
    <g id="text_24">
     <text style="font-size: 9px; font-family: 'DejaVu Sans'; text-anchor: end" x="656.364375" y="223.204581" transform="rotate(-0 656.364375 223.204581)">133,755</text>
    </g>
    <g id="patch_26">
     <path d="M 7.2 251.072557 
L 65.982375 251.072557 
L 65.982375 230.838281 
L 7.2 230.838281 
z
" style="fill: #e9ece8; stroke: #d0d0ca; stroke-linejoin: miter"/>
    </g>
    <g id="text_25">
     <text style="font-size: 9px; font-family: 'DejaVu Sans'; text-anchor: start" x="13.078237" y="243.438857" transform="rotate(-0 13.078237 243.438857)">Mirai</text>
    </g>
    <g id="patch_27">
     <path d="M 65.982375 251.072557 
L 217.362375 251.072557 
L 217.362375 230.838281 
L 65.982375 230.838281 
z
" style="fill: #ffffff; stroke: #d0d0ca; stroke-linejoin: miter"/>
    </g>
    <g id="text_26">
     <text style="font-size: 9px; font-family: 'DejaVu Sans'; text-anchor: end" x="202.224375" y="243.438857" transform="rotate(-0 202.224375 243.438857)">599,960</text>
    </g>
    <g id="patch_28">
     <path d="M 217.362375 251.072557 
L 368.742375 251.072557 
L 368.742375 230.838281 
L 217.362375 230.838281 
z
" style="fill: #ffffff; stroke: #d0d0ca; stroke-linejoin: miter"/>
    </g>
    <g id="text_27">
     <text style="font-size: 9px; font-family: 'DejaVu Sans'; text-anchor: end" x="353.604375" y="243.438857" transform="rotate(-0 353.604375 243.438857)">419,972</text>
    </g>
    <g id="patch_29">
     <path d="M 368.742375 251.072557 
L 520.122375 251.072557 
L 520.122375 230.838281 
L 368.742375 230.838281 
z
" style="fill: #ffffff; stroke: #d0d0ca; stroke-linejoin: miter"/>
    </g>
    <g id="text_28">
     <text style="font-size: 9px; font-family: 'DejaVu Sans'; text-anchor: end" x="504.984375" y="243.438857" transform="rotate(-0 504.984375 243.438857)">59,996</text>
    </g>
    <g id="patch_30">
     <path d="M 520.122375 251.072557 
L 671.502375 251.072557 
L 671.502375 230.838281 
L 520.122375 230.838281 
z
" style="fill: #ffffff; stroke: #d0d0ca; stroke-linejoin: miter"/>
    </g>
    <g id="text_29">
     <text style="font-size: 9px; font-family: 'DejaVu Sans'; text-anchor: end" x="656.364375" y="243.438857" transform="rotate(-0 656.364375 243.438857)">119,992</text>
    </g>
    <g id="patch_31">
     <path d="M 7.2 271.306832 
L 65.982375 271.306832 
L 65.982375 251.072557 
L 7.2 251.072557 
z
" style="fill: #e9ece8; stroke: #d0d0ca; stroke-linejoin: miter"/>
    </g>
    <g id="text_30">
     <text style="font-size: 9px; font-family: 'DejaVu Sans'; text-anchor: start" x="13.078237" y="263.673132" transform="rotate(-0 13.078237 263.673132)">Recon</text>
    </g>
    <g id="patch_32">
     <path d="M 65.982375 271.306832 
L 217.362375 271.306832 
L 217.362375 251.072557 
L 65.982375 251.072557 
z
" style="fill: #ffffff; stroke: #d0d0ca; stroke-linejoin: miter"/>
    </g>
    <g id="text_31">
     <text style="font-size: 9px; font-family: 'DejaVu Sans'; text-anchor: end" x="202.224375" y="263.673132" transform="rotate(-0 202.224375 263.673132)">503,528</text>
    </g>
    <g id="patch_33">
     <path d="M 217.362375 271.306832 
L 368.742375 271.306832 
L 368.742375 251.072557 
L 217.362375 251.072557 
z
" style="fill: #ffffff; stroke: #d0d0ca; stroke-linejoin: miter"/>
    </g>
    <g id="text_32">
     <text style="font-size: 9px; font-family: 'DejaVu Sans'; text-anchor: end" x="353.604375" y="263.673132" transform="rotate(-0 353.604375 263.673132)">352,470</text>
    </g>
    <g id="patch_34">
     <path d="M 368.742375 271.306832 
L 520.122375 271.306832 
L 520.122375 251.072557 
L 368.742375 251.072557 
z
" style="fill: #ffffff; stroke: #d0d0ca; stroke-linejoin: miter"/>
    </g>
    <g id="text_33">
     <text style="font-size: 9px; font-family: 'DejaVu Sans'; text-anchor: end" x="504.984375" y="263.673132" transform="rotate(-0 504.984375 263.673132)">50,353</text>
    </g>
    <g id="patch_35">
     <path d="M 520.122375 271.306832 
L 671.502375 271.306832 
L 671.502375 251.072557 
L 520.122375 251.072557 
z
" style="fill: #ffffff; stroke: #d0d0ca; stroke-linejoin: miter"/>
    </g>
    <g id="text_34">
     <text style="font-size: 9px; font-family: 'DejaVu Sans'; text-anchor: end" x="656.364375" y="263.673132" transform="rotate(-0 656.364375 263.673132)">100,705</text>
    </g>
    <g id="patch_36">
     <path d="M 7.2 291.541108 
L 65.982375 291.541108 
L 65.982375 271.306832 
L 7.2 271.306832 
z
" style="fill: #e9ece8; stroke: #d0d0ca; stroke-linejoin: miter"/>
    </g>
    <g id="text_35">
     <text style="font-size: 9px; font-family: 'DejaVu Sans'; text-anchor: start" x="13.078237" y="283.907408" transform="rotate(-0 13.078237 283.907408)">Spoofing</text>
    </g>
    <g id="patch_37">
     <path d="M 65.982375 291.541108 
L 217.362375 291.541108 
L 217.362375 271.306832 
L 65.982375 271.306832 
z
" style="fill: #ffffff; stroke: #d0d0ca; stroke-linejoin: miter"/>
    </g>
    <g id="text_36">
     <text style="font-size: 9px; font-family: 'DejaVu Sans'; text-anchor: end" x="202.224375" y="283.907408" transform="rotate(-0 202.224375 283.907408)">371,451</text>
    </g>
    <g id="patch_38">
     <path d="M 217.362375 291.541108 
L 368.742375 291.541108 
L 368.742375 271.306832 
L 217.362375 271.306832 
z
" style="fill: #ffffff; stroke: #d0d0ca; stroke-linejoin: miter"/>
    </g>
    <g id="text_37">
     <text style="font-size: 9px; font-family: 'DejaVu Sans'; text-anchor: end" x="353.604375" y="283.907408" transform="rotate(-0 353.604375 283.907408)">260,015</text>
    </g>
    <g id="patch_39">
     <path d="M 368.742375 291.541108 
L 520.122375 291.541108 
L 520.122375 271.306832 
L 368.742375 271.306832 
z
" style="fill: #ffffff; stroke: #d0d0ca; stroke-linejoin: miter"/>
    </g>
    <g id="text_38">
     <text style="font-size: 9px; font-family: 'DejaVu Sans'; text-anchor: end" x="504.984375" y="283.907408" transform="rotate(-0 504.984375 283.907408)">37,145</text>
    </g>
    <g id="patch_40">
     <path d="M 520.122375 291.541108 
L 671.502375 291.541108 
L 671.502375 271.306832 
L 520.122375 271.306832 
z
" style="fill: #ffffff; stroke: #d0d0ca; stroke-linejoin: miter"/>
    </g>
    <g id="text_39">
     <text style="font-size: 9px; font-family: 'DejaVu Sans'; text-anchor: end" x="656.364375" y="283.907408" transform="rotate(-0 656.364375 283.907408)">74,291</text>
    </g>
    <g id="patch_41">
     <path d="M 7.2 311.775383 
L 65.982375 311.775383 
L 65.982375 291.541108 
L 7.2 291.541108 
z
" style="fill: #e9ece8; stroke: #d0d0ca; stroke-linejoin: miter"/>
    </g>
    <g id="text_40">
     <text style="font-size: 9px; font-family: 'DejaVu Sans'; text-anchor: start" x="13.078237" y="304.141683" transform="rotate(-0 13.078237 304.141683)">Web</text>
    </g>
    <g id="patch_42">
     <path d="M 65.982375 311.775383 
L 217.362375 311.775383 
L 217.362375 291.541108 
L 65.982375 291.541108 
z
" style="fill: #ffffff; stroke: #d0d0ca; stroke-linejoin: miter"/>
    </g>
    <g id="text_41">
     <text style="font-size: 9px; font-family: 'DejaVu Sans'; text-anchor: end" x="202.224375" y="304.141683" transform="rotate(-0 202.224375 304.141683)">23,798</text>
    </g>
    <g id="patch_43">
     <path d="M 217.362375 311.775383 
L 368.742375 311.775383 
L 368.742375 291.541108 
L 217.362375 291.541108 
z
" style="fill: #ffffff; stroke: #d0d0ca; stroke-linejoin: miter"/>
    </g>
    <g id="text_42">
     <text style="font-size: 9px; font-family: 'DejaVu Sans'; text-anchor: end" x="353.604375" y="304.141683" transform="rotate(-0 353.604375 304.141683)">16,659</text>
    </g>
    <g id="patch_44">
     <path d="M 368.742375 311.775383 
L 520.122375 311.775383 
L 520.122375 291.541108 
L 368.742375 291.541108 
z
" style="fill: #ffffff; stroke: #d0d0ca; stroke-linejoin: miter"/>
    </g>
    <g id="text_43">
     <text style="font-size: 9px; font-family: 'DejaVu Sans'; text-anchor: end" x="504.984375" y="304.141683" transform="rotate(-0 504.984375 304.141683)">2,380</text>
    </g>
    <g id="patch_45">
     <path d="M 520.122375 311.775383 
L 671.502375 311.775383 
L 671.502375 291.541108 
L 520.122375 291.541108 
z
" style="fill: #ffffff; stroke: #d0d0ca; stroke-linejoin: miter"/>
    </g>
    <g id="text_44">
     <text style="font-size: 9px; font-family: 'DejaVu Sans'; text-anchor: end" x="656.364375" y="304.141683" transform="rotate(-0 656.364375 304.141683)">4,759</text>
    </g>
    <g id="patch_46">
     <path d="M 7.2 332.009659 
L 65.982375 332.009659 
L 65.982375 311.775383 
L 7.2 311.775383 
z
" style="fill: #bec7a1; stroke: #d0d0ca; stroke-linejoin: miter"/>
    </g>
    <g id="text_45">
     <text style="font-weight: 700; font-size: 9px; font-family: 'DejaVu Sans'; text-anchor: start" x="13.078237" y="324.375959" transform="rotate(-0 13.078237 324.375959)">Total</text>
    </g>
    <g id="patch_47">
     <path d="M 65.982375 332.009659 
L 217.362375 332.009659 
L 217.362375 311.775383 
L 65.982375 311.775383 
z
" style="fill: #bec7a1; stroke: #d0d0ca; stroke-linejoin: miter"/>
    </g>
    <g id="text_46">
     <text style="font-weight: 700; font-size: 9px; font-family: 'DejaVu Sans'; text-anchor: end" x="202.224375" y="324.375959" transform="rotate(-0 202.224375 324.375959)">4,429,940</text>
    </g>
    <g id="patch_48">
     <path d="M 217.362375 332.009659 
L 368.742375 332.009659 
L 368.742375 311.775383 
L 217.362375 311.775383 
z
" style="fill: #bec7a1; stroke: #d0d0ca; stroke-linejoin: miter"/>
    </g>
    <g id="text_47">
     <text style="font-weight: 700; font-size: 9px; font-family: 'DejaVu Sans'; text-anchor: end" x="353.604375" y="324.375959" transform="rotate(-0 353.604375 324.375959)">3,100,958</text>
    </g>
    <g id="patch_49">
     <path d="M 368.742375 332.009659 
L 520.122375 332.009659 
L 520.122375 311.775383 
L 368.742375 311.775383 
z
" style="fill: #bec7a1; stroke: #d0d0ca; stroke-linejoin: miter"/>
    </g>
    <g id="text_48">
     <text style="font-weight: 700; font-size: 9px; font-family: 'DejaVu Sans'; text-anchor: end" x="504.984375" y="324.375959" transform="rotate(-0 504.984375 324.375959)">442,994</text>
    </g>
    <g id="patch_50">
     <path d="M 520.122375 332.009659 
L 671.502375 332.009659 
L 671.502375 311.775383 
L 520.122375 311.775383 
z
" style="fill: #bec7a1; stroke: #d0d0ca; stroke-linejoin: miter"/>
    </g>
    <g id="text_49">
     <text style="font-weight: 700; font-size: 9px; font-family: 'DejaVu Sans'; text-anchor: end" x="656.364375" y="324.375959" transform="rotate(-0 656.364375 324.375959)">885,988</text>
    </g>
   </g>
   <g id="text_50">
    <text style="font-size: 11px; font-family: 'DejaVu Sans'; text-anchor: middle" x="368.742375" y="15.558281" transform="rotate(-0 368.742375 15.558281)">Cleaned and Split Sample Counts by 8-Class Category</text>
   </g>
  </g>
 </g>
</svg>
